<svg width="32" height="32" viewBox="0 0 32 32" fill="none" xmlns="http://www.w3.org/2000/svg">
<g clip-path="url(#clip0)" filter="url(#filter0_d)">
<path d="M26.9 8.95501C26.5689 8.78723 26.1975 8.71554 25.8277 8.74806C25.458 8.78058 25.1047 8.91601 24.808 9.13901L22.975 10.5C22.8495 9.2673 22.2714 8.1249 21.3525 7.2937C20.4336 6.4625 19.2391 6.00157 18 6.00001H17.915L13.793 1.87901C13.5153 1.59935 13.1848 1.37764 12.8207 1.22674C12.4566 1.07585 12.0661 0.998781 11.672 1.00001H5C4.73478 1.00001 4.48043 1.10537 4.29289 1.29291C4.10536 1.48044 4 1.7348 4 2.00001C4 2.26523 4.10536 2.51959 4.29289 2.70712C4.48043 2.89466 4.73478 3.00001 5 3.00001H11.672C11.9371 3.00073 12.1911 3.10602 12.379 3.29301L15.086 6.00001H9C7.67441 6.0016 6.40356 6.5289 5.46622 7.46623C4.52888 8.40357 4.00159 9.67442 4 11L4 19C4.00159 20.3256 4.52888 21.5965 5.46622 22.5338C6.40356 23.4711 7.67441 23.9984 9 24H18C19.2391 23.9985 20.4336 23.5375 21.3525 22.7063C22.2714 21.8751 22.8495 20.7327 22.975 19.5L24.805 20.864C25.1021 21.0869 25.4555 21.2226 25.8254 21.2559C26.1953 21.2893 26.5672 21.219 26.8994 21.0529C27.2316 20.8868 27.511 20.6314 27.7063 20.3155C27.9016 19.9995 28.005 19.6354 28.005 19.264V10.743C28.0063 10.3715 27.9034 10.0071 27.7081 9.69104C27.5128 9.375 27.2329 9.12003 26.9 8.95501ZM21 19C21 19.7957 20.6839 20.5587 20.1213 21.1213C19.5587 21.6839 18.7956 22 18 22H9C8.20435 22 7.44129 21.6839 6.87868 21.1213C6.31607 20.5587 6 19.7957 6 19V11C6 10.2044 6.31607 9.4413 6.87868 8.87869C7.44129 8.31608 8.20435 8.00001 9 8.00001H18C18.7956 8.00001 19.5587 8.31608 20.1213 8.87869C20.6839 9.4413 21 10.2044 21 11V19ZM26 19.257L23 17.021V12.979L26 10.743V19.257Z" fill="#111238"/>
</g>
<defs>
<filter id="filter0_d" x="0" y="0" width="32" height="32" filterUnits="userSpaceOnUse" color-interpolation-filters="sRGB">
<feFlood flood-opacity="0" result="BackgroundImageFix"/>
<feColorMatrix in="SourceAlpha" type="matrix" values="0 0 0 0 0 0 0 0 0 0 0 0 0 0 0 0 0 0 127 0"/>
<feOffset dy="4"/>
<feGaussianBlur stdDeviation="2"/>
<feColorMatrix type="matrix" values="0 0 0 0 0 0 0 0 0 0 0 0 0 0 0 0 0 0 0.25 0"/>
<feBlend mode="normal" in2="BackgroundImageFix" result="effect1_dropShadow"/>
<feBlend mode="normal" in="SourceGraphic" in2="effect1_dropShadow" result="shape"/>
</filter>
<clipPath id="clip0">
<rect width="24" height="24" fill="white" transform="translate(4)"/>
</clipPath>
</defs>
</svg>
